C:\Users\Nicos\Documents\OpenSimProjects\SprintingProject\Study1\PredictiveResults\IC_pred_Sprinting_optimum_28-October-2023__10-08-04_p02_maxVel_01___HTD_Minus_4_GRF.mot
version=1
nRows=7
nColumns=127
inDegrees=yes
endheader
time	ground_force_vx	ground_force_vy	ground_force_vz	ground_force_px	ground_force_py	ground_force_pz	ground_torque_x	ground_torque_y	ground_torque_z	1_ground_force_vx	1_ground_force_vy	1_ground_force_vz	1_ground_force_px	1_ground_force_py	1_ground_force_pz	1_ground_torque_x	1_ground_torque_y	1_ground_torque_z	2_ground_force_vx	2_ground_force_vy	2_ground_force_vz	2_ground_force_px	2_ground_force_py	2_ground_force_pz	2_ground_torque_x	2_ground_torque_y	2_ground_torque_z	3_ground_force_vx	3_ground_force_vy	3_ground_force_vz	3_ground_force_px	3_ground_force_py	3_ground_force_pz	3_ground_torque_x	3_ground_torque_y	3_ground_torque_z	4_ground_force_vx	4_ground_force_vy	4_ground_force_vz	4_ground_force_px	4_ground_force_py	4_ground_force_pz	4_ground_torque_x	4_ground_torque_y	4_ground_torque_z	5_ground_force_vx	5_ground_force_vy	5_ground_force_vz	5_ground_force_px	5_ground_force_py	5_ground_force_pz	5_ground_torque_x	5_ground_torque_y	5_ground_torque_z	6_ground_force_vx	6_ground_force_vy	6_ground_force_vz	6_ground_force_px	6_ground_force_py	6_ground_force_pz	6_ground_torque_x	6_ground_torque_y	6_ground_torque_z	7_ground_force_vx	7_ground_force_vy	7_ground_force_vz	7_ground_force_px	7_ground_force_py	7_ground_force_pz	7_ground_torque_x	7_ground_torque_y	7_ground_torque_z	8_ground_force_vx	8_ground_force_vy	8_ground_force_vz	8_ground_force_px	8_ground_force_py	8_ground_force_pz	8_ground_torque_x	8_ground_torque_y	8_ground_torque_z	9_ground_force_vx	9_ground_force_vy	9_ground_force_vz	9_ground_force_px	9_ground_force_py	9_ground_force_pz	9_ground_torque_x	9_ground_torque_y	9_ground_torque_z	10_ground_force_vx	10_ground_force_vy	10_ground_force_vz	10_ground_force_px	10_ground_force_py	10_ground_force_pz	10_ground_torque_x	10_ground_torque_y	10_ground_torque_z	11_ground_force_vx	11_ground_force_vy	11_ground_force_vz	11_ground_force_px	11_ground_force_py	11_ground_force_pz	11_ground_torque_x	11_ground_torque_y	11_ground_torque_z	12_ground_force_vx	12_ground_force_vy	12_ground_force_vz	12_ground_force_px	12_ground_force_py	12_ground_force_pz	12_ground_torque_x	12_ground_torque_y	12_ground_torque_z	13_ground_force_vx	13_ground_force_vy	13_ground_force_vz	13_ground_force_px	13_ground_force_py	13_ground_force_pz	13_ground_torque_x	13_ground_torque_y	13_ground_torque_z
0.153104	-0.000000	0.000000	0.000000	0.453235	0.074364	0.429814	0.000000	0.000000	0.000000	-0.000000	0.000000	0.000000	0.463364	0.096395	0.450387	0.000000	0.000000	0.000000	-0.000000	0.000000	0.000000	0.472513	0.108084	0.447347	0.000000	0.000000	0.000000	-0.000000	0.000000	0.000000	0.469019	0.106245	0.425194	0.000000	0.000000	0.000000	-0.000000	0.000000	0.000000	0.485270	0.151002	0.477248	0.000000	0.000000	0.000000	-0.000000	0.000000	0.000000	0.474703	0.122813	0.442110	0.000000	0.000000	0.000000	-0.000000	0.000000	0.000000	0.483461	0.181729	0.421165	0.000000	0.000000	0.000000	-0.000000	0.000000	-0.000000	1.396066	0.134318	0.050481	0.000000	0.000000	0.000000	-0.000000	0.000000	-0.000000	1.351725	0.143786	0.038540	0.000000	0.000000	0.000000	-0.000000	0.000000	-0.000000	1.325421	0.145879	0.048511	0.000000	0.000000	0.000000	-0.000000	0.000000	-0.000000	1.329570	0.139236	0.066477	0.000000	0.000000	0.000000	-0.000000	0.000000	-0.000000	1.240029	0.160977	0.033638	0.000000	0.000000	0.000000	-0.000000	0.000000	-0.000000	1.296480	0.146608	0.056274	0.000000	0.000000	0.000000	-0.000000	0.000000	-0.000000	1.180714	0.149527	0.087327	0.000000	0.000000	0.000000
0.153706	-0.000000	0.000000	0.000000	0.457653	0.076200	0.429723	0.000000	0.000000	0.000000	-0.000000	0.000000	0.000000	0.468060	0.098175	0.450397	0.000000	0.000000	0.000000	-0.000000	0.000000	0.000000	0.477373	0.109846	0.447392	0.000000	0.000000	0.000000	-0.000000	0.000000	0.000000	0.473898	0.108040	0.425226	0.000000	0.000000	0.000000	-0.000000	0.000000	0.000000	0.490730	0.152687	0.477474	0.000000	0.000000	0.000000	-0.000000	0.000000	0.000000	0.479802	0.124571	0.442213	0.000000	0.000000	0.000000	-0.000000	0.000000	0.000000	0.489517	0.183470	0.421498	0.000000	0.000000	0.000000	-0.000000	0.000000	-0.000000	1.408126	0.133854	0.050940	0.000000	0.000000	0.000000	-0.000000	0.000000	-0.000000	1.363603	0.143062	0.038867	0.000000	0.000000	0.000000	-0.000000	0.000000	-0.000000	1.337149	0.144985	0.048833	0.000000	0.000000	0.000000	-0.000000	0.000000	-0.000000	1.341409	0.138390	0.066842	0.000000	0.000000	0.000000	-0.000000	0.000000	-0.000000	1.251484	0.159651	0.033797	0.000000	0.000000	0.000000	-0.000000	0.000000	-0.000000	1.308188	0.145587	0.056567	0.000000	0.000000	0.000000	-0.000000	0.000000	-0.000000	1.192344	0.147996	0.087502	0.000000	0.000000	0.000000
0.155609	-0.000000	0.000000	0.000000	0.472031	0.081949	0.429411	0.000000	0.000000	0.000000	-0.000000	0.000000	0.000000	0.483268	0.103745	0.450407	0.000000	0.000000	0.000000	-0.000000	0.000000	0.000000	0.493083	0.115359	0.447522	0.000000	0.000000	0.000000	-0.000000	0.000000	0.000000	0.489680	0.113656	0.425312	0.000000	0.000000	0.000000	-0.000000	0.000000	0.000000	0.508246	0.157946	0.478184	0.000000	0.000000	0.000000	-0.000000	0.000000	0.000000	0.496243	0.130065	0.442528	0.000000	0.000000	0.000000	-0.000000	0.000000	0.000000	0.508882	0.188889	0.422553	0.000000	0.000000	0.000000	-0.000000	0.000000	-0.000000	1.446060	0.132437	0.052399	0.000000	0.000000	0.000000	-0.000000	0.000000	-0.000000	1.401010	0.140831	0.039917	0.000000	0.000000	0.000000	-0.000000	0.000000	-0.000000	1.374111	0.142215	0.049870	0.000000	0.000000	0.000000	-0.000000	0.000000	-0.000000	1.378709	0.135771	0.068015	0.000000	0.000000	0.000000	-0.000000	0.000000	-0.000000	1.287655	0.155525	0.034326	0.000000	0.000000	0.000000	-0.000000	0.000000	-0.000000	1.345104	0.142421	0.057514	0.000000	0.000000	0.000000	-0.000000	0.000000	-0.000000	1.229076	0.143245	0.088090	0.000000	0.000000	0.000000
0.156988	-0.000000	0.000000	0.000000	0.482887	0.086055	0.429236	0.000000	0.000000	0.000000	-0.000000	0.000000	0.000000	0.494678	0.107724	0.450452	0.000000	0.000000	0.000000	-0.000000	0.000000	0.000000	0.504834	0.119296	0.447650	0.000000	0.000000	0.000000	-0.000000	0.000000	0.000000	0.501487	0.117662	0.425410	0.000000	0.000000	0.000000	-0.000000	0.000000	0.000000	0.521213	0.161699	0.478707	0.000000	0.000000	0.000000	-0.000000	0.000000	0.000000	0.508491	0.133984	0.442782	0.000000	0.000000	0.000000	-0.000000	0.000000	-0.000000	0.523115	0.192736	0.423314	0.000000	0.000000	0.000000	-0.000000	0.000000	-0.000000	1.473358	0.131458	0.053438	0.000000	0.000000	0.000000	-0.000000	0.000000	-0.000000	1.427968	0.139270	0.040673	0.000000	0.000000	0.000000	-0.000000	0.000000	-0.000000	1.400780	0.140264	0.050623	0.000000	0.000000	0.000000	-0.000000	0.000000	-0.000000	1.405612	0.133930	0.068862	0.000000	0.000000	0.000000	-0.000000	0.000000	-0.000000	1.313815	0.152608	0.034735	0.000000	0.000000	0.000000	-0.000000	0.000000	-0.000000	1.371755	0.140190	0.058208	0.000000	0.000000	0.000000	-0.000000	0.000000	-0.000000	1.255656	0.139893	0.088550	0.000000	0.000000	0.000000
0.157590	-0.000000	0.000000	0.000000	0.487749	0.087829	0.429190	0.000000	0.000000	0.000000	-0.000000	0.000000	0.000000	0.499771	0.109444	0.450494	0.000000	0.000000	0.000000	-0.000000	0.000000	0.000000	0.510069	0.120999	0.447725	0.000000	0.000000	0.000000	-0.000000	0.000000	0.000000	0.506744	0.119392	0.425474	0.000000	0.000000	0.000000	-0.000000	0.000000	0.000000	0.526951	0.163323	0.478941	0.000000	0.000000	0.000000	-0.000000	0.000000	0.000000	0.513931	0.135678	0.442908	0.000000	0.000000	0.000000	-0.000000	0.000000	-0.000000	0.529379	0.194393	0.423644	0.000000	0.000000	0.000000	-0.000000	0.000000	-0.000000	1.485218	0.131042	0.053878	0.000000	0.000000	0.000000	-0.000000	0.000000	-0.000000	1.439692	0.138604	0.040997	0.000000	0.000000	0.000000	-0.000000	0.000000	-0.000000	1.412387	0.139429	0.050947	0.000000	0.000000	0.000000	-0.000000	0.000000	-0.000000	1.417318	0.133143	0.069226	0.000000	0.000000	0.000000	-0.000000	0.000000	-0.000000	1.325216	0.151356	0.034920	0.000000	0.000000	0.000000	-0.000000	0.000000	-0.000000	1.383359	0.139234	0.058510	0.000000	0.000000	0.000000	-0.000000	0.000000	-0.000000	1.267244	0.138456	0.088760	0.000000	0.000000	0.000000
0.159493	-0.000000	0.000000	0.000000	0.503618	0.093348	0.429237	0.000000	0.000000	0.000000	-0.000000	0.000000	0.000000	0.516324	0.114807	0.450772	0.000000	0.000000	0.000000	-0.000000	0.000000	0.000000	0.527034	0.126305	0.448082	0.000000	0.000000	0.000000	-0.000000	0.000000	0.000000	0.523765	0.124774	0.425802	0.000000	0.000000	0.000000	-0.000000	0.000000	-0.000000	0.545407	0.168396	0.479715	0.000000	0.000000	0.000000	-0.000000	0.000000	-0.000000	0.531497	0.140952	0.443400	0.000000	0.000000	0.000000	-0.000000	0.000000	-0.000000	0.549346	0.199541	0.424674	0.000000	0.000000	0.000000	-0.000000	0.000000	-0.000000	1.522409	0.129775	0.055183	0.000000	0.000000	0.000000	-0.000000	0.000000	-0.000000	1.476492	0.136563	0.041970	0.000000	0.000000	0.000000	-0.000000	0.000000	-0.000000	1.448860	0.136860	0.051933	0.000000	0.000000	0.000000	-0.000000	0.000000	-0.000000	1.454096	0.130722	0.070327	0.000000	0.000000	0.000000	-0.000000	0.000000	-0.000000	1.361097	0.147503	0.035523	0.000000	0.000000	0.000000	-0.000000	0.000000	-0.000000	1.419836	0.136293	0.059438	0.000000	0.000000	0.000000	-0.000000	0.000000	-0.000000	1.303740	0.134026	0.089456	0.000000	0.000000	0.000000
0.160872	-0.000000	0.000000	-0.000000	0.515577	0.097263	0.429475	0.000000	0.000000	0.000000	-0.000000	0.000000	-0.000000	0.528746	0.118623	0.451128	0.000000	0.000000	0.000000	-0.000000	0.000000	-0.000000	0.539726	0.130081	0.448470	0.000000	0.000000	0.000000	-0.000000	0.000000	-0.000000	0.536477	0.128592	0.426175	0.000000	0.000000	0.000000	-0.000000	0.000000	-0.000000	0.559097	0.172019	0.480316	0.000000	0.000000	0.000000	-0.000000	0.000000	-0.000000	0.544578	0.144702	0.443857	0.000000	0.000000	0.000000	-0.000000	0.000000	-0.000000	0.563986	0.203189	0.425408	0.000000	0.000000	0.000000	-0.000000	0.000000	-0.000000	1.549059	0.128899	0.056019	0.000000	0.000000	0.000000	-0.000000	0.000000	-0.000000	1.502894	0.135147	0.042608	0.000000	0.000000	0.000000	-0.000000	0.000000	-0.000000	1.475066	0.135070	0.052595	0.000000	0.000000	0.000000	-0.000000	0.000000	-0.000000	1.480516	0.129033	0.071060	0.000000	0.000000	0.000000	-0.000000	0.000000	-0.000000	1.386926	0.144817	0.035975	0.000000	0.000000	0.000000	-0.000000	0.000000	-0.000000	1.446060	0.134242	0.060074	0.000000	0.000000	0.000000	-0.000000	0.000000	-0.000000	1.330038	0.130930	0.089989	0.000000	0.000000	0.000000
